<?xml version="1.0" standalone="no"?>
<!DOCTYPE svg PUBLIC "-//W3C//DTD SVG 20010904//EN"
 "http://www.w3.org/TR/2001/REC-SVG-20010904/DTD/svg10.dtd">
<svg version="1.0" xmlns="http://www.w3.org/2000/svg"
 width="500.000000pt" height="500.000000pt" viewBox="0 0 500.000000 500.000000"
 preserveAspectRatio="xMidYMid meet">

<g transform="translate(0.000000,500.000000) scale(0.100000,-0.100000)"
fill="#000000" stroke="none">
<path d="M270 2515 l0 -1045 155 0 155 0 0 445 0 445 293 -1 292 0 370 -442
370 -442 188 -3 187 -2 0 22 c0 15 -141 190 -419 523 -352 419 -417 502 -408
515 7 9 194 233 417 499 241 287 406 492 408 507 l3 24 -188 -1 -188 0 -370
-442 -370 -442 -293 -3 -292 -2 0 445 0 445 -155 0 -155 0 0 -1045z"/>
<path d="M2730 2515 l0 -1045 913 2 912 3 58 30 c76 38 158 126 189 202 22 57
23 66 23 373 0 305 -1 317 -23 372 -13 31 -40 76 -61 99 l-38 43 19 59 c15 51
18 95 18 321 0 210 -3 273 -16 317 -33 114 -119 207 -229 248 -55 21 -70 21
-910 21 l-855 0 0 -1045z m1679 709 c20 -25 21 -39 21 -256 l0 -229 -25 -24
-24 -25 -646 0 -646 0 -24 25 -25 24 0 234 c0 221 1 234 20 255 l21 22 654 0
654 0 20 -26z m79 -860 c22 -15 22 -18 22 -281 0 -234 -2 -269 -17 -285 -15
-17 -51 -18 -714 -18 l-698 0 -20 26 c-20 25 -21 39 -21 274 0 235 1 249 21
274 l20 26 693 0 c610 0 694 -2 714 -16z"/>
</g>
</svg>
