<?xml version="1.0" encoding="iso-8859-1"?>
<!-- Uploaded to: SVG Repo, www.svgrepo.com, Generator: SVG Repo Mixer Tools -->
<svg version="1.1" id="Layer_1" xmlns="http://www.w3.org/2000/svg" xmlns:xlink="http://www.w3.org/1999/xlink" 
	 viewBox="0 0 512 512" xml:space="preserve">
<rect x="185.909" y="327.554" style="fill:#B4E1FA;" width="138.903" height="112.549"/>
<g>
	<rect x="30.891" y="200.571" style="fill:#DAF0FD;" width="84.64" height="84.194"/>
	<rect x="30.891" y="108.286" style="fill:#DAF0FD;" width="84.64" height="85.417"/>
	<rect x="122.389" y="108.286" style="fill:#DAF0FD;" width="84.469" height="85.417"/>
	<rect x="122.389" y="200.571" style="fill:#DAF0FD;" width="84.469" height="84.194"/>
	<rect x="213.714" y="200.571" style="fill:#DAF0FD;" width="83.806" height="84.194"/>
	<rect x="213.714" y="108.286" style="fill:#DAF0FD;" width="83.806" height="85.417"/>
	<rect x="304.377" y="108.286" style="fill:#DAF0FD;" width="84.48" height="85.417"/>
	<rect x="304.377" y="200.571" style="fill:#DAF0FD;" width="84.48" height="84.194"/>
	<rect x="395.714" y="200.571" style="fill:#DAF0FD;" width="84.663" height="84.194"/>
	<rect x="395.714" y="108.286" style="fill:#DAF0FD;" width="84.663" height="85.417"/>
</g>
<rect x="30.891" y="71.903" style="fill:#6F7589;" width="449.486" height="29.531"/>
<rect x="30.891" y="291.611" style="fill:#C7CFE2;" width="449.486" height="29.074"/>
<g>
	<path style="fill:#9FA7BF;" d="M21.189,440.097h48.434v-79.143c0-1.89,1.538-3.429,3.429-3.429s3.429,1.538,3.429,3.429v79.143
		h47.714v-79.143c0-1.89,1.538-3.429,3.429-3.429s3.429,1.538,3.429,3.429v79.143h48V327.549H21.189V440.097z"/>
	<path style="fill:#9FA7BF;" d="M331.669,327.549v112.549h48.857v-79.143c0-1.89,1.538-3.429,3.429-3.429
		c1.89,0,3.429,1.538,3.429,3.429v79.143h47.714v-79.143c0-1.89,1.538-3.429,3.429-3.429s3.429,1.538,3.429,3.429v79.143h47.669
		V327.549H331.669z"/>
</g>
<path d="M502.857,434.383c5.051,0,9.143,4.091,9.143,9.143s-4.091,9.143-9.143,9.143H9.143c-5.051,0-9.143-4.091-9.143-9.143
	c0-4.869,3.817-8.846,8.617-9.12V324.12c0-5.051,4.103-9.143,9.143-9.143h0.56V68.474c0-5.04,4.103-9.143,9.143-9.143h456.343
	c5.051,0,9.143,4.103,9.143,9.143v246.503h0.103c5.051,0,9.143,4.091,9.143,9.143v110.263L502.857,434.383L502.857,434.383z
	 M483.909,434.383v-101.12H337.383v101.12h37.429v-73.429c0-5.051,4.091-9.143,9.143-9.143c5.051,0,9.143,4.091,9.143,9.143v73.429
	h36.286v-73.429c0-5.051,4.091-9.143,9.143-9.143s9.143,4.091,9.143,9.143v73.429H483.909z M474.663,314.977v-17.646H36.606v17.646
	H474.663z M474.663,279.046V206.28h-73.234v72.766H474.663z M474.663,187.994v-73.989h-73.234v73.989H474.663z M474.663,95.72
	V77.617H36.606V95.72C36.606,95.72,474.663,95.72,474.663,95.72z M383.143,279.046V206.28h-73.051v72.766H383.143z M383.143,187.994
	v-73.989h-73.051v73.989H383.143z M319.097,434.383v-101.12H191.623v101.12H319.097z M291.806,279.046V206.28h-72.377v72.766
	H291.806z M291.806,187.994v-73.989h-72.377v73.989H291.806z M201.143,279.046V206.28h-73.04v72.766H201.143z M201.143,187.994
	v-73.989h-73.04v73.989H201.143z M173.337,434.383v-101.12H26.903v101.12h37.006v-73.429c0-5.051,4.091-9.143,9.143-9.143
	c5.051,0,9.143,4.091,9.143,9.143v73.429h36.286v-73.429c0-5.051,4.091-9.143,9.143-9.143c5.051,0,9.143,4.091,9.143,9.143v73.429
	H173.337z M109.817,279.046V206.28H36.606v72.766H109.817z M109.817,187.994v-73.989H36.606v73.989H109.817z"/>
</svg>